<?xml version="1.0" encoding="iso-8859-1"?>
<svg fill="#333" height="800px" width="800px" version="1.1" id="Layer_1" xmlns="http://www.w3.org/2000/svg" xmlns:xlink="http://www.w3.org/1999/xlink" 
	 viewBox="0 0 512 512" xml:space="preserve">
<g>
	<g>
		<polygon points="169.472,255.998 320,346.323 320,165.673 		"/>
	</g>
</g>
<g>
	<g>
		<path d="M426.667,0H85.333C38.272,0,0,38.272,0,85.333v341.333C0,473.728,38.272,512,85.333,512h341.333
			C473.728,512,512,473.728,512,426.667V85.333C512,38.272,473.728,0,426.667,0z M362.667,384c0,7.68-4.139,14.784-10.816,18.56
			c-3.264,1.856-6.891,2.773-10.517,2.773c-3.797,0-7.595-1.003-10.987-3.051l-213.333-128c-6.421-3.84-10.347-10.795-10.347-18.283
			c0-7.488,3.925-14.443,10.347-18.283l213.333-128c6.592-3.968,14.805-4.075,21.504-0.277c6.677,3.776,10.816,10.88,10.816,18.56
			V384z"/>
	</g>
</g>
</svg>